# xmcd
#
# Track frame offsets:
#	150
#	16953
#	32930
#	54983
#	69912
#	95718
#	113648
#	132632
#	157681
#	178310
#	192397
#	210887
#
# Disc length: 3100 seconds
#
# Revision: 0
# Processed by: cddbd v1.4PL0 Copyright (c) Steve Scherf et al.
# Submitted via: audiograbber 1.81.02
#
DISCID=9f0c1a0c
DTITLE=Rob Tognoni - Monkeygrinder
DYEAR=2000
DGENRE=Blues
TTITLE0=Revenge Of The Monkeygrinder
TTITLE1=Drink Jack Boogie
TTITLE2=Product Of A Southern Land
TTITLE3=Weapon Called Love
TTITLE4=ElmerF's Lil' Blues
TTITLE5=The Harder I Will Fall
TTITLE6=Diamonds In The Air
TTITLE7=Not My Guitar
TTITLE8=Sugar Coat
TTITLE9=What Do Yuo Believe
TTITLE10=My Acid Is Kickin' In
TTITLE11=In The Scheme Of Things
EXTD=
EXTT0=
EXTT1=
EXTT2=
EXTT3=
EXTT4=
EXTT5=
EXTT6=
EXTT7=
EXTT8=
EXTT9=
EXTT10=
EXTT11=
PLAYORDER=
